<?xml version="1.0" encoding="utf-8"?>
<!-- Generator: Adobe Illustrator 23.0.0, SVG Export Plug-In . SVG Version: 6.00 Build 0)  -->
<svg version="1.1" id="图层_1" xmlns="http://www.w3.org/2000/svg" xmlns:xlink="http://www.w3.org/1999/xlink" x="0px" y="0px"
	width="36px" height="36px" viewBox="0 0 96 96" style="enable-background:new 0 0 96 96;" xml:space="preserve">
<style type="text/css">
	.st0{fill:#FFFFFF;}
	.st1{fill:none;}
</style>
<g>
	<path class="st0" d="M88.4,63.7c-4.2,0-7.6-3.5-7.6-7.8V42.6c0-2.6,1.3-4.9,3.2-6.3C79.6,20.3,65.2,8.7,48,8.7
		c-17.2,0-31.6,11.7-36,27.6c2,1.4,3.2,3.7,3.2,6.3v13.3c0,3.2-1.9,6-4.6,7.1c4.8,10.8,14,19.2,25.3,22.7c1.2-3.1,5.3-5.4,10.3-5.4
		c5.9,0,10.7,3.2,10.7,7.2c0,4-4.8,7.2-10.7,7.2c-4.9,0-9-2.3-10.3-5.3C22.8,85.7,12.2,76.1,7,63.6c-3.9-0.3-7-3.6-7-7.7V42.6
		c0-3.3,2.1-6.1,4.9-7.3C9.8,15.9,27.2,1.5,48,1.5c20.8,0,38.2,14.4,43,33.8c2.9,1.1,4.9,3.9,4.9,7.3v13.3
		C96,60.2,92.6,63.7,88.4,63.7z"/>
	<rect x="0" class="st1" width="96" height="96"/>
</g>
</svg>
