<?xml version="1.0" encoding="utf-8"?>
<!-- Generator: Adobe Illustrator 22.0.0, SVG Export Plug-In . SVG Version: 6.00 Build 0)  -->
<svg version="1.1" id="Layer_1" xmlns="http://www.w3.org/2000/svg" xmlns:xlink="http://www.w3.org/1999/xlink" x="0px" y="0px"
	 viewBox="0 0 96 96" style="enable-background:new 0 0 96 96;" xml:space="preserve">
<style type="text/css">
	.st0{fill:#FFFFFF;}
	.st1{fill:none;}
</style>
<text transform="matrix(1 0 0 1 242.2578 -54.7969)" style="font-family:'MyriadPro-Regular'; font-size:27.3044px;">CMYK</text>
<text transform="matrix(1 0 0 1 262.3486 -10.8799)" style="font-family:'MyriadPro-Regular'; font-size:19.0576px;">C=70</text>
<text transform="matrix(1 0 0 1 262.3486 17.5998)" style="font-family:'MyriadPro-Regular'; font-size:19.0576px;">M=12</text>
<text transform="matrix(1 0 0 1 262.3486 47.9824)" style="font-family:'MyriadPro-Regular'; font-size:19.0576px;">Y=0</text>
<text transform="matrix(1 0 0 1 262.3486 81.6741)" style="font-family:'MyriadPro-Regular'; font-size:19.0576px;">K=0</text>
<g>
	<path class="st0" d="M80,93.5H16C8.6,93.5,2.5,87.4,2.5,80V16C2.5,8.6,8.6,2.5,16,2.5h64c7.4,0,13.5,6.1,13.5,13.5v64
		C93.5,87.4,87.4,93.5,80,93.5z M16,5.5C10.2,5.5,5.5,10.2,5.5,16v64c0,5.8,4.7,10.5,10.5,10.5h64c5.8,0,10.5-4.7,10.5-10.5V16
		c0-5.8-4.7-10.5-10.5-10.5H16z"/>
	<g>
		<g>
			<g id="XMLID_27_">
				<path class="st0" d="M52.2,30.3H41c0,0-6,1.5-6,7.1s6,6.7,6,6.7h3.3V41H41c0,0-2.3-0.3-2.3-3.6S41,34,41,34h11.2V30.3z"/>
			</g>
			<g id="XMLID_26_">
				<path class="st0" d="M44.4,38.1h4.4c0,0,4.9,0.7,4.9,6.8c0,5.4-4.9,6.9-4.9,6.9H36.6V48h12.2c0,0,1.6-0.3,1.6-3.4
					S48.8,41,48.8,41h-4.4C44.4,41,44.4,38.1,44.4,38.1z"/>
			</g>
			<g id="XMLID_25_">
				<polygon class="st0" points="20.5,37.5 14.3,51.7 17,51.7 21.9,40.6 				"/>
			</g>
			<g id="XMLID_24_">
				<polygon class="st0" points="21.9,34.3 29.5,51.7 33.4,51.7 23.9,30.3 				"/>
			</g>
			<g id="XMLID_23_">
				<polygon class="st0" points="22.9,42.8 19,51.7 26.9,51.7 				"/>
			</g>
			<g id="XMLID_22_">
				<rect x="56.2" y="30.3" class="st0" width="3.7" height="21.4"/>
			</g>
			<g id="XMLID_21_">
				<polygon class="st0" points="69.1,37.5 62.7,51.7 65.5,51.7 70.6,40.6 				"/>
			</g>
			<g id="XMLID_20_">
				<polygon class="st0" points="70.6,34.3 78.2,51.7 82,51.7 72.5,30.3 				"/>
			</g>
			<g id="XMLID_19_">
				<polygon class="st0" points="71.5,42.8 67.5,51.7 75.5,51.7 				"/>
			</g>
			<g id="XMLID_16_">
				<g id="XMLID_17_">
					<path class="st0" d="M25,55.8l-2.4,9.9h-1.5l-1-4.8c-0.3-1.1-0.4-2.2-0.5-3.2l0,0c-0.2,1-0.3,2-0.6,3.2l-1.1,4.8h-1.5L14,55.8
						h1.5l1,4.7c0.3,1.2,0.4,2.4,0.6,3.5l0,0c0.2-1,0.4-2.3,0.7-3.5l1-4.7h1.5l1,4.7c0.3,1.1,0.4,2.3,0.6,3.4l0,0
						c0.2-1.1,0.3-2.3,0.6-3.5l1-4.7L25,55.8L25,55.8z"/>
				</g>
			</g>
			<g id="XMLID_13_">
				<g id="XMLID_14_">
					<path class="st0" d="M81.8,55.7l-3,5.8v4.2h-1.5v-4.2l-2.8-5.8h1.7l1.1,2.6c0.3,0.7,0.6,1.4,0.9,2.1l0,0
						c0.3-0.7,0.5-1.3,0.9-2.1l1.1-2.6L81.8,55.7L81.8,55.7z"/>
				</g>
			</g>
			<g id="XMLID_10_">
				<g id="XMLID_11_">
					<path class="st0" d="M35,65.7h-5.1v-10h5v1.2h-3.5v2.9h3.3v1.3h-3.3v3.3h3.7L35,65.7L35,65.7z"/>
				</g>
			</g>
			<g id="XMLID_7_">
				<g id="XMLID_8_">
					<path class="st0" d="M58.4,65.7h-5.1v-10h1.5v8.7h3.7L58.4,65.7L58.4,65.7z"/>
				</g>
			</g>
			<g id="XMLID_4_">
				<g id="XMLID_5_">
					<path class="st0" d="M70.2,61.5c0,2.9-1.4,4.2-3.4,4.2c-1.9,0-3.2-1.1-3.2-4.1v-5.8h1.5v5.9c0,2,0.8,2.8,1.9,2.8
						c1.2,0,1.9-0.9,1.9-2.8v-5.9h1.5L70.2,61.5L70.2,61.5z"/>
				</g>
			</g>
			<g id="XMLID_1_">
				<g id="XMLID_2_">
					<path class="st0" d="M41.2,55.7h1.5v9.9h-1.5V55.7z"/>
				</g>
			</g>
		</g>
	</g>
	<rect class="st1" width="96" height="96"/>
</g>
</svg>
